<svg width="837" height="186" viewBox="0 0 837 186" fill="none" xmlns="http://www.w3.org/2000/svg">
<path fill-rule="evenodd" clip-rule="evenodd" d="M239 32L294.854 172.4L350.708 32H346.366L295.054 164L243.36 32H239ZM518.927 148.8C515.327 142.267 513.527 134.333 513.527 125V32.6H509.527V125.4C509.527 135.667 511.527 144.333 515.527 151.4C519.527 158.333 524.927 163.6 531.727 167.2C538.661 170.8 546.461 172.6 555.127 172.6C563.794 172.6 571.527 170.8 578.327 167.2C585.261 163.6 590.727 158.333 594.727 151.4C598.861 144.333 600.927 135.667 600.927 125.4V32.6H596.927V125C596.927 134.333 595.127 142.267 591.527 148.8C587.927 155.333 582.927 160.333 576.527 163.8C570.261 167.133 563.127 168.8 555.127 168.8C547.127 168.8 539.994 167.133 533.727 163.8C527.461 160.333 522.527 155.333 518.927 148.8ZM652.399 32.6H648.399V173H732.799V169.2H652.399V32.6ZM836.232 32.6H725.032V36.4H778.632V173H782.632V36.4H836.232V32.6Z" fill="white"/>
<path fill-rule="evenodd" clip-rule="evenodd" d="M466.947 173L415.254 41L363.942 173H359.6L415.454 32.6L471.308 173H466.947Z" fill="white"/>
<path d="M145.8 28.9H0L90.5 185.8H114.9L37 50.7L133.3 50.6L145.8 28.9Z" fill="white"/>
<path d="M50.3 58.5L123.2 184.8L213.8 28L201.6 6.90002L123.6 141.9L75.4001 58.5H50.3Z" fill="white"/>
<path d="M124 126.4L196.9 0.1L15.8001 0L3.6001 21.1L159.5 21.2L111.5 104.6L124 126.4Z" fill="white"/>
</svg>
