<svg width="598" height="143" viewBox="0 0 598 143" fill="none" xmlns="http://www.w3.org/2000/svg">
<path fill-rule="evenodd" clip-rule="evenodd" d="M0 0L55.854 140.4L111.708 0H107.366L56.054 132L4.36031 0H0ZM279.927 118.8C276.327 112.267 274.527 104.333 274.527 95V0.600006H270.527V95.4C270.527 105.667 272.527 114.333 276.527 121.4C280.527 128.333 285.927 133.6 292.727 137.2C299.661 140.8 307.461 142.6 316.127 142.6C324.794 142.6 332.527 140.8 339.327 137.2C346.261 133.6 351.727 128.333 355.727 121.4C359.861 114.333 361.927 105.667 361.927 95.4V0.600006H357.927V95C357.927 104.333 356.127 112.267 352.527 118.8C348.927 125.333 343.927 130.333 337.527 133.8C331.261 137.133 324.127 138.8 316.127 138.8C308.127 138.8 300.994 137.133 294.727 133.8C288.461 130.333 283.527 125.333 279.927 118.8ZM413.399 0.600006H409.399V141H493.799V137.2H413.399V0.600006ZM597.232 0.600006H486.032V4.40001H539.632V141H543.632V4.40001H597.232V0.600006Z" fill="black"/>
<path fill-rule="evenodd" clip-rule="evenodd" d="M227.947 141L176.254 9.00002L124.942 141H120.6L176.454 0.600006L232.308 141H227.947Z" fill="black"/>
</svg>
