<svg width="633" height="144" viewBox="0 0 633 144" fill="none" xmlns="http://www.w3.org/2000/svg">
<path d="M505.137 0H632.376V9.4H574.176V142H562.876V9.4H505.137V0Z" fill="black"/>
<path d="M432.719 0H444.02V132.6H533.731V142H432.719V0Z" fill="black"/>
<path d="M290.042 94.9526C290.042 103.128 291.968 110.181 295.819 116.114C299.825 122.047 305.216 126.662 311.995 129.958C318.774 133.123 326.476 134.705 335.104 134.705C343.885 134.705 351.664 133.123 358.443 129.958C365.376 126.662 370.768 122.047 374.619 116.114C378.625 110.181 380.627 103.128 380.627 94.9526V0H391.719V95.546C391.719 105.699 389.177 114.401 384.093 121.652C379.163 128.903 372.386 134.441 363.758 138.265C355.285 142.089 345.734 144 335.104 144C324.474 144 314.846 142.089 306.218 138.265C297.746 134.441 291.044 128.903 286.114 121.652C281.184 114.401 278.719 105.699 278.719 95.546V0H290.042V94.9526Z" fill="black"/>
<path fill-rule="evenodd" clip-rule="evenodd" d="M242.863 142L188.675 23L135.579 142H122.812L189.367 0L255.921 142H242.863Z" fill="black"/>
<path fill-rule="evenodd" clip-rule="evenodd" d="M0 0L66.3666 141.6L132.733 0H119.976L67.0585 118.6L13.0521 0H0Z" fill="black"/>
</svg>
